# xmcd
#
# Track frame offsets:
#	150
#	18188
#	41328
#	69656
#	86905
#	103446
#	125552
#	159352
#	175460
#	206442
#	230294
#	254333
#	275546
#	304892
#	314958
#	338388
#
# Disc length: 4789 seconds
#
# Revision: 1
# Processed by: cddbd v1.5.2PL0 Copyright (c) Steve Scherf et al.
# Submitted via: audiograbber 1.83.01
#
DISCID=e512b310
DTITLE=John Mayall and the Bluesbreakers - Back to the Roots
DYEAR=1969
DGENRE=Blues
TTITLE0=Prisons On The Road
TTITLE1=My Children
TTITLE2=Accidental Suicide
TTITLE3=Groupie Girl
TTITLE4=Blue Fox
TTITLE5=Home Again
TTITLE6=Television Eye
TTITLE7=Mariage Madness
TTITLE8=Looking At Tomorrow
TTITLE9=Dream With Me
TTITLE10=Full Speed Ahead
TTITLE11=Mr. Cencor Man
TTITLE12=Force Of Nature
TTITLE13=Boogie Albert
TTITLE14=Unanswered Questions
TTITLE15=Devil's Tricks
EXTD=
EXTT0=
EXTT1=
EXTT2=
EXTT3=
EXTT4=
EXTT5=
EXTT6=
EXTT7=
EXTT8=
EXTT9=
EXTT10=
EXTT11=
EXTT12=
EXTT13=
EXTT14=
EXTT15=
PLAYORDER=
